<svg xmlns="http://www.w3.org/2000/svg" viewBox="0 0 96 96" role="img" aria-label="Midnight Shadow">
  <rect width="96" height="96" rx="14" fill="#e9ebff"/>
  <circle cx="48" cy="53" r="29" fill="#2f2f43" stroke="#4a4f6e" stroke-opacity="0.35" stroke-width="1.3"/>
  <path d="M31 33l8-15 9 16" fill="#2f2f43"/>
  <path d="M65 33l-8-15-9 16" fill="#2f2f43"/>
  <path d="M37.7 31.8l2.8-5.4 3.4 5.7" fill="#595d79" opacity="0.86"/>
  <path d="M58.3 31.8l-2.8-5.4-3.4 5.7" fill="#595d79" opacity="0.86"/>

  <ellipse cx="38.5" cy="52" rx="3.1" ry="3.3" fill="#f2f5ff"/>
  <ellipse cx="57.5" cy="52" rx="3.1" ry="3.3" fill="#f2f5ff"/>
  <circle cx="39.5" cy="51" r="0.66" fill="#fff" opacity="0.78"/>
  <circle cx="58.5" cy="51" r="0.66" fill="#fff" opacity="0.78"/>

  <ellipse cx="41.7" cy="60" rx="6.3" ry="4.8" fill="#595d79" opacity="0.62"/>
  <ellipse cx="54.3" cy="60" rx="6.3" ry="4.8" fill="#595d79" opacity="0.62"/>
  <path d="M48 57.6l-2.4 3.2h4.8z" fill="#ff8eae"/>
  <path d="M44.7 62.2c1.1 1.3 2.4 1.9 3.3 1.9s2.2-.6 3.3-1.9" fill="none" stroke="#4a4f6e" stroke-width="1.9" stroke-linecap="round"/>

  <path d="M25 52.5h13M58 52.5h13" stroke="#4a4f6e" stroke-width="2.5" stroke-linecap="round" opacity="0.85"/>
  <path d="M42.2 38.6v5.1M48 37.3v6.6M53.8 38.6v5.1" stroke="#4a4f6e" stroke-width="2" stroke-linecap="round" opacity="0.45"/>
</svg>
