<svg xmlns="http://www.w3.org/2000/svg" viewBox="0 0 96 96" role="img" aria-label="Midnight Shadow Full Body">
  <rect width="96" height="96" rx="12" fill="#9bcf92"/>
  <rect y="74" width="96" height="22" fill="#89c37e"/>
  <ellipse cx="48" cy="86" rx="18" ry="4" fill="#6aa96b" opacity="0.45"/>

  <path d="M68 66c6 0 11 4 11 9 0 4-3 7-7 7-3 0-5-2-5-4 0-2 1-4 3-4 1.6 0 2.8 1.2 2.8 2.8" fill="none" stroke="#4a4f6e" stroke-width="3" stroke-linecap="round"/>

  <ellipse cx="48" cy="54" rx="18" ry="22" fill="#2f2f43" stroke="#4a4f6e" stroke-opacity="0.35" stroke-width="1.4"/>
  <ellipse cx="48" cy="58" rx="9.2" ry="11" fill="#595d79" opacity="0.72"/>
  <rect x="36" y="59" width="6.5" height="16" rx="3.2" fill="#2f2f43"/>
  <rect x="53.5" y="59" width="6.5" height="16" rx="3.2" fill="#2f2f43"/>
  <ellipse cx="40" cy="75" rx="5.5" ry="3.6" fill="#595d79" opacity="0.8"/>
  <ellipse cx="56" cy="75" rx="5.5" ry="3.6" fill="#595d79" opacity="0.8"/>

  <circle cx="48" cy="29" r="15" fill="#2f2f43" stroke="#4a4f6e" stroke-opacity="0.35" stroke-width="1.2"/>
  <path d="M36 19l6-10 6 12" fill="#2f2f43"/>
  <path d="M60 19l-6-10-6 12" fill="#2f2f43"/>
  <path d="M39 18l3.2-5.1 2.7 5.3" fill="#595d79" opacity="0.85"/>
  <path d="M57 18l-3.2-5.1-2.7 5.3" fill="#595d79" opacity="0.85"/>

  <ellipse cx="42.4" cy="28.5" rx="2.25" ry="2.5" fill="#f2f5ff"/>
  <ellipse cx="53.6" cy="28.5" rx="2.25" ry="2.5" fill="#f2f5ff"/>
  <circle cx="43.2" cy="27.7" r="0.5" fill="#ffffff" opacity="0.8"/>
  <circle cx="54.4" cy="27.7" r="0.5" fill="#ffffff" opacity="0.8"/>

  <path d="M48 32l-2.1 2.6h4.2z" fill="#ff97b3"/>
  <path d="M44.5 36c1.2 1.4 2.6 2.1 3.5 2.1s2.3-.7 3.5-2.1" fill="none" stroke="#4a4f6e" stroke-width="1.8" stroke-linecap="round"/>
  <path d="M35 33h8M53 33h8" stroke="#4a4f6e" stroke-width="1.4" stroke-linecap="round" opacity="0.9"/>

  <path d="M43.2 44.2v16.6M48 42.5v18.8M52.8 44.2v16.6" stroke="#4a4f6e" stroke-width="2" stroke-linecap="round" opacity="0.48"/>
</svg>
